<svg width="164" height="33" viewBox="0 0 164 33" fill="none" xmlns="http://www.w3.org/2000/svg">
<path d="M163.535 31.8886C161.399 31.8886 159.146 31.7951 156.773 31.7016C156.773 31.7016 156.892 31.7016 157.188 31.7951C156.951 31.7951 156.714 31.7951 156.476 31.7951C156.358 31.8886 157.781 31.8886 158.908 31.9821C148.528 32.4497 158.019 31.421 149.477 31.234C149.359 31.234 149.24 31.234 149.24 31.3275H149.181C148.113 31.5145 149.299 31.7951 148.647 31.9821C148.232 32.0757 147.223 32.0757 145.622 32.0757C143.902 32.1692 138.208 31.8886 132.158 31.608C132.098 31.608 132.039 31.608 131.92 31.608C130.971 31.608 129.963 31.5145 129.014 31.5145C128.777 31.5145 128.54 31.5145 128.243 31.5145C128.421 31.5145 128.54 31.608 128.895 31.608C128.777 31.608 128.777 31.608 128.658 31.608C128.421 31.608 128.243 31.608 127.887 31.608C128.243 31.7016 129.251 31.7016 130.26 31.7016C121.896 32.0757 113.059 31.5145 104.933 31.421C103.806 31.421 102.679 31.421 101.67 31.421C100.484 31.421 99.4164 31.5145 98.2895 31.5145C98.3488 31.5145 98.5267 31.5145 98.4674 31.5145C98.4081 31.5145 98.3488 31.5145 98.2895 31.5145C98.1115 31.5145 97.9929 31.5145 97.8743 31.5145C97.5777 31.5145 76.4619 31.5145 76.2247 31.5145C73.5556 31.421 71.5389 31.421 69.5815 31.5145C69.8188 31.5145 69.8781 31.5145 69.9967 31.5145C69.7595 31.5145 69.4629 31.5145 69.1664 31.5145C68.8698 31.5145 68.5732 31.5145 68.2766 31.608C68.0394 31.608 67.9207 31.608 67.6242 31.608C67.9207 31.608 68.2766 31.608 68.5732 31.5145C66.4972 31.5145 63.2943 31.421 60.1506 31.3275L59.9134 31.421C59.8541 31.421 59.7948 31.421 59.7948 31.421L58.6678 31.7951C58.4305 31.7951 58.3119 31.7951 58.0746 31.7951C54.9903 31.9821 55.5835 31.608 57.2443 31.3275C55.7614 31.234 54.3379 31.234 53.2702 31.1404C53.1516 31.1404 53.033 31.1404 52.9143 31.1404L52.6178 31.234C49.9487 31.7016 44.7883 30.9534 41.6447 31.608H41.5854C40.0432 31.3275 32.629 31.3275 27.9432 31.0469C27.8246 31.0469 27.8246 31.0469 27.7652 31.1404C27.7059 31.1404 27.6466 31.1404 27.5873 31.1404C27.35 31.234 27.1721 31.234 27.1721 31.3275L12.6402 31.234L12.8181 31.3275H12.4029L12.6402 31.421C7.42058 31.5145 4.099 31.421 1.60782 31.234C1.78575 31.234 1.96368 31.3275 2.31956 31.3275C1.96368 31.3275 1.66713 31.3275 1.37056 31.3275C1.54851 31.421 1.84508 31.421 2.26027 31.421C-0.230911 31.3275 -1.95102 31.234 -3.37456 31.1404C-15.5932 31.234 -18.0251 31.234 -26.5663 30.7663C-27.6933 30.8599 -29.1761 30.8599 -30.8369 30.9534L-31.0148 31.0469H-31.1335L-31.3114 31.1404C-34.5737 30.9534 -51.1816 31.7951 -64.5272 31.3275C-64.4086 31.3275 -64.4086 31.3275 -64.2306 31.421C-64.4086 31.421 -64.5865 31.421 -64.7645 31.421C-64.7051 31.421 -64.5272 31.5145 -64.1713 31.5145C-76.2713 31.234 -91.693 32.1692 -100.056 31.7951C-105.098 31.8886 -108.835 31.9821 -113.402 31.5145C-113.52 31.5145 -113.58 31.608 -113.698 31.608H-113.758C-114.707 31.7951 -112.394 31.8886 -112.571 32.0757C-113.402 31.9821 -115.537 31.8886 -116.486 31.9821C-116.605 31.9821 -116.664 31.9821 -116.664 32.0757C-116.783 32.0757 -116.783 32.0757 -116.842 32.0757C-117.672 32.1692 -116.308 32.2627 -114.885 32.2627C-123.307 32.1692 -124.553 31.5145 -125.265 30.8599C-126.036 30.8599 -126.747 30.8599 -127.4 30.8599C-129.001 30.9534 -130.425 30.9534 -131.789 30.9534C-132.204 30.9534 -132.56 31.0469 -132.738 31.0469H-132.916C-132.975 31.0469 -132.975 31.0469 -133.035 31.0469C-133.272 31.0469 -133.331 31.0469 -133.331 31.1404C-135.17 31.1404 -137.068 31.1404 -138.966 31.1404C-142.703 31.234 -147.982 31.234 -151.897 31.1404C-156.523 31.1404 -161.09 31.234 -165.717 31.234H-176.037C-180.071 31.3275 -183.867 31.234 -187.07 31.0469C-190.451 30.8599 -193.594 30.2987 -195.196 29.7376C-196.679 29.1765 -197.331 28.6154 -197.568 27.8672C-197.628 27.119 -197.746 26.3708 -197.746 25.6227L-194.484 26.0903L-194.543 25.9967H-194.247L-194.425 24.5004C-194.958 24.3134 -195.907 24.1263 -196.501 24.3134C-196.975 24.4069 -197.39 24.5004 -197.39 24.968C-198.339 24.5004 -196.204 23.6587 -195.196 23.3781H-195.136C-195.018 23.3781 -195.018 23.3781 -194.958 23.3781C-194.84 23.3781 -194.662 23.3781 -194.662 23.3781C-195.136 22.63 -195.907 22.5364 -196.619 22.7235C-196.679 22.7235 -196.679 22.7235 -196.738 22.7235C-196.857 22.7235 -196.975 22.817 -197.094 22.817C-197.746 23.004 -198.517 23.4717 -198.814 23.6587C-198.873 23.6587 -198.873 23.5652 -198.873 23.5652L-198.636 22.9105L-198.458 23.004C-198.339 23.004 -198.28 22.9105 -198.221 22.9105H-198.102C-196.619 22.1624 -195.136 22.1624 -195.314 20.8531C-196.026 20.0114 -197.509 20.479 -197.628 20.1049C-197.924 20.1049 -197.983 20.0114 -197.806 19.6373C-198.458 19.4502 -198.933 19.2632 -199.11 19.0761C-199.288 18.9826 -199.466 18.9826 -199.585 19.0761C-199.882 19.0761 -200 19.2632 -200.237 19.4502C-201.068 18.8891 -201.068 18.6085 -200.712 18.515C-200.178 18.4215 -199.17 18.515 -198.221 18.4215C-198.102 18.4215 -197.983 18.4215 -197.924 18.4215L-197.983 17.8604L-196.975 18.1409C-196.916 18.1409 -196.857 18.0474 -196.857 18.0474L-196.679 18.1409C-196.501 18.0474 -196.382 17.9539 -196.382 17.7668C-197.983 17.4863 -200.534 18.1409 -200.831 17.1122C-202.076 16.6446 -195.967 14.213 -198.339 12.8102C-197.568 12.9972 -196.857 13.0907 -196.263 12.9037C-195.848 12.9037 -195.433 12.7167 -195.077 12.4361C-194.662 11.3138 -199.882 9.4434 -195.907 8.41466C-196.263 8.22762 -196.619 8.22762 -196.857 8.22762C-195.967 7.47945 -195.374 5.88957 -193.713 5.23492C-194.069 5.04788 -194.306 4.95436 -194.484 4.67379C-195.907 4.29971 -196.026 3.73858 -195.789 3.08393C-196.085 2.80336 -196.56 2.61631 -197.212 2.42927C-197.153 2.42927 -197.034 2.42927 -196.975 2.33575H-196.916C-195.492 2.14871 -196.085 0.184753 -194.484 -0.0958138C-194.899 -0.189335 -195.492 -0.282852 -196.56 -0.282852L-196.501 -0.563419C-196.56 -0.563419 -196.619 -0.563419 -196.679 -0.65694C-196.56 -0.750462 -196.501 -0.843987 -196.441 -0.937508L-196.145 -2.90146L-196.916 -2.80794C-197.153 -3.55612 -196.916 -4.11724 -196.441 -4.49133C-197.034 -5.89415 -197.924 -7.39051 -197.45 -8.98037C-196.975 -8.98037 -196.441 -8.88685 -195.848 -8.88685C-195.848 -8.88685 -195.848 -8.88685 -195.789 -8.98037C-195.73 -8.98037 -195.611 -8.98037 -195.492 -8.98037C-195.255 -9.16742 -195.077 -9.35446 -194.662 -9.5415L-198.221 -10.8508C-197.924 -11.2249 -195.67 -11.4119 -195.374 -11.786C-195.492 -11.8795 -195.552 -12.0666 -195.67 -12.1601C-195.848 -12.2536 -195.967 -12.3472 -196.145 -12.3472C-196.204 -12.3472 -196.204 -12.3472 -196.204 -12.4407C-196.145 -12.4407 -195.967 -12.3472 -195.848 -12.3472C-196.738 -13.5629 -197.983 -15.2463 -196.263 -16.7427C-196.441 -16.7427 -196.679 -16.7427 -196.916 -16.6492C-197.094 -16.6492 -197.212 -16.6492 -197.272 -16.5556C-194.84 -19.0807 -202.907 -22.541 -196.738 -23.7568H-196.56C-196.263 -23.8503 -195.907 -23.8503 -195.492 -23.9438H-195.255L-194.958 -24.2244C-195.077 -26.2819 -195.789 -28.2458 -198.221 -30.3033C-197.865 -30.1163 -197.509 -30.1163 -197.331 -30.2098C-196.975 -30.1163 -196.797 -30.3968 -196.738 -30.7709C-196.501 -30.6774 -196.085 -30.6774 -195.611 -30.6774C-195.492 -30.6774 -195.374 -30.6774 -195.314 -30.6774C-195.374 -31.2385 -195.374 -31.7997 -195.552 -32.3608L-196.738 -33.296C-196.56 -33.296 -196.441 -33.3895 -196.382 -33.3895C-196.145 -33.3895 -195.967 -33.4831 -195.789 -33.5766C-195.848 -33.9507 -196.026 -34.3248 -196.085 -34.6988L-195.73 -34.4183L-195.077 -34.6988L-196.145 -35.0729L-196.501 -36.6628C-196.56 -36.6628 -196.441 -36.7563 -196.501 -36.7563L-197.628 -36.8498C-196.975 -36.9434 -195.789 -36.7563 -194.958 -37.6915C-194.781 -37.6915 -194.84 -37.8786 -195.255 -37.9721C-195.374 -37.9721 -195.73 -37.9721 -196.145 -37.8786C-195.967 -38.1591 -195.73 -38.4397 -195.314 -38.6267C-194.899 -38.9073 -194.069 -39.1879 -193.001 -39.3749C-192.23 -39.562 -191.459 -39.6555 -190.51 -39.8425C-189.857 -39.9361 -189.264 -40.0296 -188.612 -40.0296C-185.528 -40.3101 -182.028 -40.4037 -178.054 -40.4972C-173.605 -40.4972 -169.276 -40.4972 -164.886 -40.4972L-167.615 -39.8425H-159.311C-158.718 -39.9361 -158.243 -39.9361 -158.006 -40.0296C-156.76 -40.2166 -157.116 -40.4037 -161.624 -40.4037C-158.955 -40.5907 -154.744 -40.2166 -153.024 -40.0296L-151.422 -39.9361C-149.287 -40.0296 -148.219 -40.0296 -148.1 -40.1231C-146.262 -40.3102 -151.659 -40.5907 -153.142 -40.6842H-148.753H-149.168C-149.109 -40.6842 -148.99 -40.6842 -148.931 -40.6842H-149.405C-145.906 -40.4037 -145.194 -40.2166 -139.915 -40.2166L-140.212 -40.3101C-140.034 -40.3101 -139.915 -40.3101 -139.678 -40.3101L-139.974 -40.4037C-138.907 -40.4037 -137.78 -40.4037 -136.594 -40.3101C-135.704 -40.3101 -135.289 -40.4037 -135.111 -40.4972C-134.636 -40.5907 -134.577 -40.5907 -134.399 -40.6842H-134.34C-134.221 -40.6842 -134.102 -40.6842 -133.924 -40.6842C-133.924 -40.6842 -133.331 -40.7778 -131.255 -40.6842L-120.935 -40.7778L-124.612 -40.3101C-124.612 -40.3101 -124.553 -40.3101 -124.494 -40.3101L-124.909 -40.2166C-122.892 -40.1231 -120.935 -40.1231 -119.511 -40.1231C-119.155 -40.1231 -118.621 -40.1231 -118.206 -40.1231H-118.147C-118.266 -40.1231 -118.444 -40.1231 -118.444 -40.1231C-117.91 -40.1231 -117.732 -40.0296 -118.147 -39.9361C-118.325 -39.9361 -118.503 -39.8425 -118.74 -39.8425C-118.799 -39.8425 -118.799 -39.8425 -118.859 -39.8425H-118.918C-119.215 -39.8425 -119.511 -39.749 -119.867 -39.749C-116.13 -40.2166 -105.572 -40.3101 -95.7263 -40.3101H-95.667C-95.0739 -40.2166 -93.0572 -40.1231 -89.8542 -40.1231C-91.5743 -40.2166 -92.2861 -40.3101 -92.2861 -40.3101C-88.0748 -40.3101 -84.2787 -40.3101 -81.313 -40.3101L-82.3807 -40.4037C-82.1434 -40.4037 -81.9655 -40.4037 -81.7875 -40.4037H-81.6096C-81.2537 -40.3101 -80.9571 -40.4037 -80.7792 -40.4037H-79.8895C-78.288 -40.4037 -76.9831 -40.4037 -76.3307 -40.4972C-72.4159 -40.3101 -68.5012 -40.2166 -64.2306 -40.1231V-40.2166C-64.112 -40.2166 -63.9934 -40.2166 -63.9341 -40.2166C-64.0527 -40.3101 -63.6375 -40.4037 -64.4679 -40.5907C-62.3919 -40.4972 -60.1973 -40.3102 -61.1463 -40.1231C-59.3669 -40.1231 -57.7061 -40.1231 -55.8081 -40.1231C-56.0453 -40.1231 -56.1639 -40.0296 -56.3419 -40.0296C-56.4012 -40.0296 -56.4012 -40.0296 -56.4605 -40.0296C-57.1129 -39.9361 -57.3502 -39.749 -56.2232 -39.6555C-54.7404 -39.749 -53.2576 -39.749 -51.9527 -39.8425C-51.9527 -39.8425 -51.8933 -39.8425 -51.7747 -39.9361C-51.7154 -39.9361 -51.6561 -39.9361 -51.5968 -39.9361C-51.5374 -40.0296 -51.3595 -40.0296 -51.1816 -40.0296C-50.4698 -40.1231 -49.5208 -40.2166 -48.3938 -40.2166H-48.3345C-47.9786 -40.1231 -48.5718 -40.0296 -48.6311 -39.9361L-42.9962 -40.0296L-40.2678 -39.9361L-40.9203 -40.1231H-42.9962L-47.8007 -40.3101C-44.9536 -40.4037 -41.1575 -40.4037 -37.8952 -40.5907C-37.0055 -40.5907 -36.1751 -40.5907 -35.5227 -40.5907C-36.1158 -40.5907 -36.709 -40.5907 -37.48 -40.5907C-36.2345 -40.6842 -34.9889 -40.7777 -34.0992 -40.8713C-36.4717 -40.4037 -18.0844 -40.6842 -20.7535 -40.2166H-20.9315C-21.1094 -40.2166 -21.2874 -40.1231 -21.5839 -40.1231H-21.4653C-21.5839 -40.1231 -21.7619 -40.0296 -21.8805 -40.0296H-21.6432C-20.1011 -40.0296 -19.4486 -40.1231 -19.2707 -40.2166C-18.7369 -40.3101 -18.7962 -40.3101 -18.9148 -40.4037C-18.0251 -40.3101 -16.8981 -40.3101 -15.4153 -40.4037C-14.6442 -40.4037 -14.6442 -40.4037 -14.9408 -40.4972C-11.6785 -40.4972 -8.35692 -40.4972 -5.15396 -40.5907C-6.63681 -40.5907 -8.11967 -40.5907 -9.42458 -40.6842C-8.83144 -40.6842 -8.29761 -40.6842 -7.70448 -40.6842C-6.16231 -40.6842 -5.15398 -40.6842 -4.50153 -40.6842C-4.32359 -40.6842 -4.20496 -40.6842 -4.14565 -40.6842C-3.55251 -40.6842 -3.55251 -40.6842 -3.84908 -40.7778C-2.18828 -40.7778 -5.33191 -40.8713 -5.45053 -41.0583C-5.45053 -41.0583 -5.45055 -41.0583 -5.39124 -41.0583C-5.03535 -41.0583 -4.3829 -41.1518 -3.25594 -41.1518C-3.55251 -41.1518 -3.84908 -41.1518 -4.14565 -41.1518C-3.84908 -41.1518 -3.61182 -41.1518 -3.25594 -41.1518H-3.1373C-2.24759 -40.9648 -0.586807 -40.8713 0.599472 -40.6842C6.11566 -40.7778 11.8691 -40.8713 17.8598 -40.8713C15.1314 -40.6842 13.352 -40.5907 11.0387 -40.4972L13.352 -40.4037L12.5809 -40.4972L23.8505 -40.5907L23.9691 -40.4972L24.3844 -40.5907H23.8505C23.554 -40.6842 22.8422 -40.8713 19.1647 -40.9648C19.4613 -41.0583 19.6986 -41.0583 20.0544 -41.0583C20.1138 -40.9648 20.2917 -40.9648 20.7069 -40.8713C22.1897 -40.8713 23.554 -40.8713 25.0961 -40.8713L25.5113 -40.6842L28.8329 -40.5907C28.5363 -40.4972 28.7736 -40.4037 30.6123 -40.2166L37.0775 -40.7778L37.2555 -40.6842L39.9246 -40.7778L38.3824 -40.8713L39.0349 -40.9648L39.3315 -41.0583C39.5687 -41.0583 39.6873 -41.1518 39.9246 -41.1518C41.704 -41.3389 95.561 -41.2454 99.7723 -41.8065C95.9169 -41.1518 135.301 -40.8713 135.894 -40.8713C137.021 -40.7777 163.535 31.8886 163.535 31.8886ZM-148.812 21.4142C-142.169 20.853 -135.289 20.2919 -133.272 18.6085C-142.406 18.9826 -145.728 20.1984 -148.812 21.4142ZM-91.3964 20.7595C-90.2694 21.1336 -89.439 21.6012 -87.8376 21.8818C-85.7023 22.2559 -82.7959 22.2559 -80.6606 21.8818C-78.7032 21.5077 -78.1101 20.9466 -80.9571 20.666C-83.9822 20.1984 -87.3037 20.0114 -91.3964 20.7595ZM-154.684 0.932924C-153.557 1.30701 -152.727 1.77462 -151.066 2.05519C-148.99 2.42928 -146.084 2.42928 -143.949 2.05519C-141.991 1.6811 -141.398 1.11997 -144.245 0.839405C-147.27 0.371796 -150.592 0.278273 -154.684 0.932924ZM-135.051 -3.9302C-135.407 -3.64964 -135.229 -3.36907 -135.229 -3.0885C-134.221 -3.0885 -133.094 -3.18203 -131.374 -3.18203C-131.671 -3.4626 -131.848 -3.74316 -132.086 -4.02372C-133.094 -4.02372 -134.992 -4.02372 -135.051 -3.9302ZM-64.5272 2.99041C-65.0017 3.45802 -65.5948 3.8321 -66.0694 4.29971C-64.2306 4.29971 -61.6208 4.39323 -60.5532 4.20618C-59.6041 4.01914 -60.2566 3.55153 -60.1973 3.27097C-62.0953 3.17745 -63.2816 3.08393 -64.5272 2.99041ZM-67.2556 1.58758C-67.1963 1.58758 -67.2556 1.58758 -67.2556 1.58758C-67.4929 1.40054 -67.5522 1.40054 -67.7895 1.30701L-67.2556 1.58758ZM-66.8997 1.58758C-66.8997 1.49406 -66.8997 1.49406 -66.8997 1.58758C-67.137 1.40054 -67.2556 1.40054 -67.4929 1.30701L-66.8997 1.58758ZM-122.596 -9.63502C-122.121 -9.5415 -121.706 -9.44798 -121.231 -9.35446C-120.935 -9.44798 -120.342 -9.5415 -120.282 -9.63502C-120.282 -9.72855 -120.816 -9.72855 -121.113 -9.82207C-121.587 -9.72855 -122.121 -9.63502 -122.596 -9.63502ZM-164.056 -20.203C-164.293 -20.1095 -164.53 -20.0159 -164.886 -19.9224C-163.997 -19.9224 -163.048 -19.9224 -162.217 -19.9224C-161.98 -19.9224 -162.158 -20.1095 -162.039 -20.2965C-162.692 -20.2965 -163.344 -20.2965 -164.056 -20.203ZM-67.7301 -4.7719L-66.8404 -4.49133L-66.01 -4.67838L-67.7301 -4.7719ZM-67.315 -5.33303L-66.4252 -5.23951L-65.9507 -5.52007L-67.315 -5.33303ZM61.9893 16.2705L61.6335 16.5511L63.1163 16.364L61.9893 16.2705ZM-63.2223 -11.786C-62.8664 -11.8795 -62.9257 -11.9731 -62.8664 -12.0666C-63.5189 -12.0666 -64.2899 -12.0666 -64.6458 -11.9731C-65.0017 -11.8795 -64.9424 -11.786 -65.0017 -11.6925C-64.3492 -11.6925 -63.5189 -11.6925 -63.2223 -11.786ZM-193.238 -30.6774C-193.179 -30.8644 -193.179 -31.145 -193.12 -31.3321C-193.357 -30.958 -193.298 -30.7709 -193.238 -30.6774ZM58.7864 13.8389C58.6085 14.026 58.4305 14.213 58.2526 14.4001C59.3203 14.4936 60.3879 14.5871 61.5149 14.6806C61.7521 14.4936 62.4046 14.213 61.9893 14.026C61.5149 13.9324 59.9134 13.8389 58.7864 13.8389ZM-65.4169 -9.44798C-64.8831 -9.35446 -64.5272 -9.5415 -64.112 -9.82207C-64.5865 -9.82207 -65.061 -9.72855 -65.4169 -9.44798ZM34.2305 8.32114C34.4677 8.41466 34.6456 8.50819 34.9422 8.60171C36.0692 8.50819 37.552 8.50818 38.2638 8.41466C39.4501 8.22762 40.1618 7.94705 42.4158 7.38592C38.3231 7.85353 36.3064 8.04058 34.2305 8.32114ZM-132.382 -23.1957C-132.738 -23.1021 -132.679 -23.0086 -132.738 -22.9151C-131.789 -22.9151 -130.781 -22.9151 -129.832 -22.8216C-129.772 -23.0086 -129.654 -23.1957 -129.535 -23.4762C-130.544 -23.3827 -131.552 -23.2892 -132.382 -23.1957ZM-93.9469 -17.3038C-94.8366 -17.1168 -96.2008 -16.9297 -95.9636 -16.7427C-95.0739 -16.2751 -93.7096 -15.901 -92.4047 -15.5269C-92.1675 -15.4334 -90.8033 -15.4334 -90.4474 -15.5269C-89.5577 -15.7139 -88.3121 -15.901 -88.49 -16.088C-89.2018 -16.5556 -90.4474 -16.9297 -91.3371 -17.3973C-92.7013 -17.3038 -93.591 -17.3038 -93.9469 -17.3038ZM-161.387 -30.8645L-160.734 -30.6774L-160.141 -30.8645H-161.387ZM56.2952 5.23492C56.1173 5.51549 55.7614 5.88957 56.1766 6.17014C56.3546 6.26366 58.3119 6.35719 59.4389 6.45071C59.5575 6.07662 59.6761 5.79606 59.7354 5.42197C58.3712 5.32845 57.3036 5.23492 56.2952 5.23492ZM-56.0453 -21.9799C-55.9267 -22.1669 -55.8081 -22.354 -55.7487 -22.541C-57.3502 -22.541 -58.9517 -22.4475 -60.4939 -22.4475C-60.1973 -22.2605 -60.1973 -21.9799 -59.3669 -21.8864C-58.6551 -21.7929 -57.1723 -21.9799 -56.0453 -21.9799ZM-88.3714 -31.9867C-91.0998 -31.0515 -93.591 -30.1163 -96.9126 -28.807C-87.1258 -29.2746 -84.1008 -30.3033 -83.0924 -31.5191C-82.9145 -31.7061 -83.9822 -31.9867 -84.9312 -32.0802C-85.8209 -32.1738 -88.0155 -32.0802 -88.3714 -31.9867ZM-132.738 -40.7778L-134.399 -40.6842C-134.221 -40.6842 -134.102 -40.6842 -134.102 -40.6842H-134.696C-132.204 -40.5907 -131.848 -40.5907 -132.145 -40.6842C-131.433 -40.6842 -132.086 -40.7778 -132.738 -40.7778ZM67.031 -10.3832C66.8531 -10.0091 67.1497 -9.63503 67.3276 -9.26094C68.3359 -9.35447 70.1747 -9.44798 70.412 -9.5415C70.9458 -9.82207 70.7085 -10.1962 70.7085 -10.5702C69.1664 -10.3832 67.2683 -10.3832 67.031 -10.3832ZM2.73477 -23.8503C3.09065 -23.6633 3.50586 -23.2892 4.03969 -23.2892C5.64116 -23.2892 7.30196 -23.3827 9.02205 -23.4762C8.66617 -23.7568 8.25096 -24.0374 8.07303 -24.0374C6.2343 -24.0374 4.45488 -23.9438 2.73477 -23.8503ZM1.37056 -30.2098C0.302917 -30.2098 -1.65446 -30.0228 -1.77309 -29.8357C-2.06966 -29.2746 -1.77309 -28.7135 -1.71376 -28.1523C-0.230927 -28.1523 1.25192 -28.1523 2.67546 -28.0588C3.14996 -28.6199 3.74312 -29.1811 3.92105 -29.7422C3.86174 -29.9292 2.20096 -30.2098 1.37056 -30.2098ZM17.5039 -27.8718C17.2074 -27.7782 17.5632 -27.6847 17.6226 -27.4977C18.8089 -27.5912 20.0544 -27.6847 21.0034 -27.7782C21.2407 -27.7782 20.8255 -27.9653 20.7069 -28.1523C19.6985 -28.1523 18.5123 -28.0588 17.5039 -27.8718ZM2.31956 -33.6701C1.90437 -33.4831 1.72644 -33.296 1.48918 -33.0154C2.49751 -33.109 3.6245 -33.2025 4.63283 -33.296C4.81078 -33.296 4.5735 -33.5766 4.15831 -33.5766C3.80243 -33.6701 2.37889 -33.6701 2.31956 -33.6701ZM-3.31525 -37.5045C-3.13731 -37.411 -3.07799 -37.3174 -2.72211 -37.2239C-2.30692 -37.1304 -1.59515 -37.1304 -0.942688 -37.1304C-1.17995 -37.2239 -1.23926 -37.411 -1.65445 -37.411C-2.01033 -37.5045 -2.72211 -37.5045 -3.31525 -37.5045Z" fill="#121212"/>
</svg>
